<?xml version="1.0" encoding="utf-8"?>
<COLLADA xmlns="http://www.collada.org/2005/11/COLLADASchema" version="1.4.1" xmlns:xsi="http://www.w3.org/2001/XMLSchema-instance">
  <asset>
    <contributor>
      <author>Centrixe</author>
      <authoring_tool>OpenCOLLADA for 3ds Max;  Version: 1.6;  Revision: 68</authoring_tool>
    </contributor>
    <created>2019-09-08T01:08:56</created>
    <modified>2019-09-08T01:08:56</modified>
    <unit name="inch" meter="0.0254"/>
    <up_axis>Z_UP</up_axis>
  </asset>
  <library_effects>
    <effect id="paintball">
      <profile_COMMON>
        <newparam sid="masterhandpaintball_col_png-surface">
          <surface type="2D">
            <init_from>masterhandpaintball_col_png</init_from>
          </surface>
        </newparam>
        <newparam sid="masterhandpaintball_col_png-sampler">
          <sampler2D>
            <source>masterhandpaintball_col_png-surface</source>
          </sampler2D>
        </newparam>
        <technique sid="common">
          <blinn>
            <emission>
              <color>0 0 0 1</color>
            </emission>
            <ambient>
              <color>0.588 0.588 0.588 1</color>
            </ambient>
            <diffuse>
              <texture texture="masterhandpaintball_col_png-sampler" texcoord="CHANNEL1"/>
            </diffuse>
            <specular>
              <color>0 0 0 1</color>
            </specular>
            <shininess>
              <float>10</float>
            </shininess>
            <reflective>
              <color>0 0 0 1</color>
            </reflective>
            <transparent opaque="A_ONE">
              <texture texture="masterhandpaintball_col_png-sampler" texcoord="CHANNEL1"/>
            </transparent>
            <transparency>
              <float>1</float>
            </transparency>
          </blinn>
        </technique>
      </profile_COMMON>
      <extra>
        <technique profile="OpenCOLLADA3dsMax">
          <extended_shader>
            <opacity_type sid="opacity_type" type="int">0</opacity_type>
            <falloff_type sid="falloff_type" type="int">0</falloff_type>
            <falloff sid="falloff" type="float">0</falloff>
            <index_of_refraction sid="index_of_refraction" type="float">1.5</index_of_refraction>
            <wire_size sid="wire_size" type="float">1</wire_size>
            <wire_units sid="wire_units" type="int">0</wire_units>
            <apply_reflection_dimming sid="apply_reflection_dimming" type="bool">0</apply_reflection_dimming>
            <dim_level sid="dim_level" type="float">0</dim_level>
            <reflection_level sid="reflection_level" type="float">3</reflection_level>
          </extended_shader>
          <shader>
            <ambient_diffuse_texture_lock sid="ambient_diffuse_texture_lock" type="bool">1</ambient_diffuse_texture_lock>
            <ambient_diffuse_lock sid="ambient_diffuse_lock" type="bool">1</ambient_diffuse_lock>
            <diffuse_specular_lock sid="diffuse_specular_lock" type="bool">0</diffuse_specular_lock>
            <use_self_illum_color sid="use_self_illum_color" type="bool">0</use_self_illum_color>
            <self_illumination sid="self_illumination" type="float">0</self_illumination>
            <specular_level sid="specular_level" type="float">0</specular_level>
            <soften sid="soften" type="float">0.1</soften>
          </shader>
        </technique>
      </extra>
    </effect>
  </library_effects>
  <library_materials>
    <material id="paintball-material" name="paintball">
      <instance_effect url="#paintball"/>
    </material>
  </library_materials>
  <library_geometries>
    <geometry id="geom-GameobjShape" name="GameobjShape">
      <mesh>
        <source id="geom-GameobjShape-positions">
          <float_array id="geom-GameobjShape-positions-array" count="480">2.66991 13.0331 2.6699 4.03814 10.314 6.99427 6.99427 10.314 4.03814 0 13.0331 3.90901 0 10.314 8.07629 -2.66991 13.0331 2.6699 -4.03814 10.314 6.99427 0 13.0331 3.90901 -6.99427 10.314 4.03814 -3.90901 13.0331 0 -8.07629 10.314 0 -2.66991 13.0331 -2.66991 -6.99427 10.314 -4.03814 -3.90901 13.0331 0 -8.07629 10.314 0 -4.03814 10.314 -6.99427 0 13.0331 -3.90901 0 10.314 -8.07629 2.66991 13.0331 -2.66991 4.03814 10.314 -6.99427 0 13.0331 -3.90901 6.99427 10.314 -4.03814 3.90901 13.0331 0 8.07629 10.314 0 3.90901 13.0331 0 8.07629 10.314 0 8.86284 7.64764 5.11696 5.11696 7.64764 8.86284 0 7.64764 10.2339 -5.11696 7.64764 8.86284 -8.86284 7.64764 5.11696 -10.2339 7.64764 0 -10.2339 7.64764 0 -8.86284 7.64764 -5.11696 -5.11696 7.64764 -8.86284 0 7.64764 -10.2339 5.11696 7.64764 -8.86284 8.86284 7.64764 -5.11696 10.2339 7.64764 0 10.2339 7.64764 0 10.4189 3.9136 6.01535 6.01535 3.9136 10.4189 0 3.9136 12.0307 -6.01535 3.9136 10.4189 -10.4189 3.9136 6.01535 -12.0307 3.9136 0 -12.0307 3.9136 0 -10.4189 3.9136 -6.01535 -6.01535 3.9136 -10.4189 0 3.9136 -12.0307 6.01535 3.9136 -10.4189 10.4189 3.9136 -6.01535 12.0307 3.9136 0 12.0307 3.9136 0 10.9551 0.00458336 6.32492 6.32492 0.00458336 10.9551 0 0.00458336 12.6498 -6.32492 0.00458336 10.9551 -10.9551 0.00458336 6.32492 -12.6498 0.00458336 0 -12.6498 0.00458336 0 -10.9551 0.00458336 -6.32492 -6.32492 0.00458336 -10.9551 0 0.00458336 -12.6498 6.32492 0.00458336 -10.9551 10.9551 0.00458336 -6.32492 12.6498 0.00458336 0 12.6498 0.00458336 0 10.4189 -3.90442 6.01535 6.01535 -3.90442 10.4189 0 -3.90442 12.0307 -6.01535 -3.90442 10.4189 -10.4189 -3.90442 6.01535 -12.0307 -3.90442 0 -12.0307 -3.90442 0 -10.4189 -3.90442 -6.01535 -6.01535 -3.90442 -10.4189 0 -3.90442 -12.0307 6.01535 -3.90442 -10.4189 10.4189 -3.90442 -6.01535 12.0307 -3.90442 0 12.0307 -3.90442 0 8.86284 -7.4308 5.11696 5.11696 -7.4308 8.86284 0 -7.4308 10.2339 -5.11696 -7.4308 8.86284 -8.86284 -7.4308 5.11696 -10.2339 -7.4308 0 -10.2339 -7.4308 0 -8.86284 -7.4308 -5.11696 -5.11696 -7.4308 -8.86284 0 -7.4308 -10.2339 5.11696 -7.4308 -8.86284 8.86284 -7.4308 -5.11696 10.2339 -7.4308 0 10.2339 -7.4308 0 6.43923 -10.2293 3.71769 3.71769 -10.2293 6.43923 0 -10.2293 7.43538 -3.71769 -10.2293 6.43923 -6.43923 -10.2293 3.71769 -7.43538 -10.2293 0 -7.43538 -10.2293 0 -6.43923 -10.2293 -3.71769 -3.71769 -10.2293 -6.43923 0 -10.2293 -7.43538 3.71769 -10.2293 -6.43923 6.43923 -10.2293 -3.71769 7.43538 -10.2293 0 7.43538 -10.2293 0 2.66991 -12.0261 2.6699 0 -12.0261 3.90901 0 -12.0261 3.90901 -2.66991 -12.0261 2.6699 -3.90901 -12.0261 0 -3.90901 -12.0261 0 -2.66991 -12.0261 -2.66991 0 -12.0261 -3.90901 0 -12.0261 -3.90901 2.66991 -12.0261 -2.66991 3.90901 -12.0261 0 3.90901 -12.0261 0 0 15.1527 1.10143 0.752289 15.1527 0.752289 0 15.2209 0 -0.752289 15.1527 0.752289 -1.10143 15.1527 0 -0.752289 15.1527 -0.75229 -1.10143 15.1527 0 0 15.2209 0 0 15.1527 -1.10143 0.752289 15.1527 -0.75229 1.10143 15.1527 0 1.10143 15.1527 0 0 -12.6452 0 0 -12.6452 0 0 -12.6452 0 0 -12.6452 0 -0.343995 14.2403 -0.343996 -0.503643 14.2403 0 -0.343995 14.2403 0.343995 -0.503643 14.2403 0 0 14.2403 0.503643 0.343995 14.2403 0.343995 0.503643 14.2403 0 0.343995 14.2403 -0.343996 0.503643 14.2403 0 0 14.2403 -0.503643 -0.343995 14.2403 0.343995 -0.503643 14.2403 0 0 14.2403 0.503643 0.343995 14.2403 0.343995 0 14.2403 0.503643 0.503643 14.2403 0 0.343995 14.2403 -0.343996 0.503643 14.2403 0 0 14.2403 -0.503643 -0.343995 14.2403 -0.343996 0 14.2403 -0.503643 -0.503643 14.2403 0</float_array>
          <technique_common>
            <accessor source="#geom-GameobjShape-positions-array" count="160" stride="3">
              <param name="X" type="float"/>
              <param name="Y" type="float"/>
              <param name="Z" type="float"/>
            </accessor>
          </technique_common>
        </source>
        <source id="geom-GameobjShape-normals">
          <float_array id="geom-GameobjShape-normals-array" count="480">0.3193718 0.8921901 0.3193718 0.4283593 0.9036085 3.05273e-5 0.334046 0.9425567 3.05232e-5 0.2436092 0.9387807 0.2436092 3.05273e-5 0.9036085 0.4283593 3.05232e-5 0.9425567 0.334046 0.5713962 0.7457453 0.3425935 0.3425935 0.7457453 0.5713962 0.6573628 0.7535741 3.05239e-5 0.8446056 0.5353891 3.05309e-5 0.7315956 0.5352662 0.4222059 3.05239e-5 0.7535741 0.6573628 0.4222059 0.5352662 0.7315956 0.9544278 0.2984419 3.0528e-5 0.8265257 0.2984676 0.4772551 3.05309e-5 0.5353891 0.8446056 0.4772551 0.2984676 0.8265257 -0.3425935 0.7457453 0.5713962 3.05273e-5 0.9036085 0.4283593 -0.4222059 0.5352662 0.7315956 3.0528e-5 0.2984419 0.9544278 0.5001311 3.05256e-5 0.8659497 0.8659497 3.05256e-5 0.5001311 1 3.05176e-5 3.05176e-5 0.95093 -0.3094063 3.05255e-5 0.8235057 -0.3094252 0.4754939 3.05176e-5 3.05176e-5 1 0.4754939 -0.3094252 0.8235057 -0.4772551 0.2984676 0.8265257 -0.7315956 0.5352662 0.4222059 -0.5713962 0.7457453 0.3425935 -0.3193718 0.8921901 0.3193718 3.05232e-5 0.9425567 0.334046 -0.2436092 0.9387807 0.2436092 -0.4283593 0.9036085 3.05273e-5 -0.334046 0.9425567 3.05232e-5 -0.6573628 0.7535741 3.05239e-5 -0.8446056 0.5353891 3.05309e-5 -0.8265257 0.2984676 0.4772551 -0.5001311 3.05256e-5 0.8659497 3.05255e-5 -0.3094063 0.95093 0.4041089 -0.5884607 0.7002927 0.7002927 -0.5884607 0.4041089 0.8084191 -0.5886073 3.05294e-5 0.5738228 -0.8189794 3.05225e-5 0.500152 -0.8122585 0.30014 3.05294e-5 -0.5886073 0.8084191 0.30014 -0.8122585 0.500152 -0.4754939 -0.3094252 0.8235057 -0.8659497 3.05256e-5 0.5001311 -0.9544278 0.2984419 3.0528e-5 -1 3.05176e-5 3.05176e-5 -0.8235057 -0.3094252 0.4754939 -0.4041089 -0.5884607 0.7002927 3.05225e-5 -0.8189794 0.5738228 3.05217e-5 -0.9561846 0.2927644 0.2291791 -0.9460199 0.2291791 0.2927644 -0.9561846 3.05217e-5 3.05176e-5 -1 3.05176e-5 -0.30014 -0.8122585 0.500152 3.05217e-5 -0.9561846 0.2927644 -0.7002927 -0.5884607 0.4041089 -0.95093 -0.3094063 3.05255e-5 -0.8084191 -0.5886073 3.05294e-5 -0.500152 -0.8122585 0.30014 -0.2291791 -0.9460199 0.2291791 3.05176e-5 -1 3.05176e-5 -0.2927644 -0.9561846 3.05217e-5 -0.5738228 -0.8189794 3.05225e-5 -0.3193718 0.8921901 -0.3193718 -0.4283593 0.9036085 3.05273e-5 -0.334046 0.9425567 3.05232e-5 -0.2436092 0.9387807 -0.2436092 3.05273e-5 0.9036085 -0.4283593 3.05232e-5 0.9425567 -0.334046 -0.3425935 0.7457453 -0.5713962 -0.5713962 0.7457453 -0.3425935 -0.6573628 0.7535741 3.05239e-5 -0.7315956 0.5352662 -0.4222059 -0.8446056 0.5353891 3.05309e-5 3.05239e-5 0.7535741 -0.6573628 -0.4222059 0.5352662 -0.7315956 -0.8265257 0.2984676 -0.4772551 -0.9544278 0.2984419 3.0528e-5 3.05309e-5 0.5353891 -0.8446056 -0.4772551 0.2984676 -0.8265257 0.3425935 0.7457453 -0.5713962 3.05273e-5 0.9036085 -0.4283593 0.4222059 0.5352662 -0.7315956 3.0528e-5 0.2984419 -0.9544278 -0.5001311 3.05256e-5 -0.8659497 -0.8659497 3.05256e-5 -0.5001311 -1 3.05176e-5 3.05176e-5 -0.8235057 -0.3094252 -0.4754939 -0.95093 -0.3094063 3.05255e-5 3.05176e-5 3.05176e-5 -1 -0.4754939 -0.3094252 -0.8235057 0.4772551 0.2984676 -0.8265257 0.7315956 0.5352662 -0.4222059 0.5713962 0.7457453 -0.3425935 0.3193718 0.8921901 -0.3193718 3.05232e-5 0.9425567 -0.334046 0.2436092 0.9387807 -0.2436092 0.4283593 0.9036085 3.05273e-5 0.334046 0.9425567 3.05232e-5 0.6573628 0.7535741 3.05239e-5 0.8446056 0.5353891 3.05309e-5 0.8265257 0.2984676 -0.4772551 0.5001311 3.05256e-5 -0.8659497 3.05255e-5 -0.3094063 -0.95093 -0.4041089 -0.5884607 -0.7002927 -0.7002927 -0.5884607 -0.4041089 -0.8084191 -0.5886073 3.05294e-5 -0.500152 -0.8122585 -0.30014 -0.5738228 -0.8189794 3.05225e-5 3.05294e-5 -0.5886073 -0.8084191 -0.30014 -0.8122585 -0.500152 0.4754939 -0.3094252 -0.8235057 0.8659497 3.05256e-5 -0.5001311 0.9544278 0.2984419 3.0528e-5 1 3.05176e-5 3.05176e-5 0.8235057 -0.3094252 -0.4754939 0.4041089 -0.5884607 -0.7002927 3.05225e-5 -0.8189794 -0.5738228 3.05217e-5 -0.9561846 -0.2927644 -0.2291791 -0.9460199 -0.2291791 -0.2927644 -0.9561846 3.05217e-5 3.05176e-5 -1 3.05176e-5 0.30014 -0.8122585 -0.500152 3.05217e-5 -0.9561846 -0.2927644 0.7002927 -0.5884607 -0.4041089 0.95093 -0.3094063 3.05255e-5 0.8084191 -0.5886073 3.05294e-5 0.500152 -0.8122585 -0.30014 0.2291791 -0.9460199 -0.2291791 3.05176e-5 -1 3.05176e-5 0.2927644 -0.9561846 3.05217e-5 0.5738228 -0.8189794 3.05225e-5 3.05214e-5 -0.5479202 0.8365306 0.617328 0.4876598 0.617328 3.0531e-5 0.5007089 0.8656158 -0.617328 0.4876598 0.617328 3.05176e-5 1 3.05176e-5 0.5974402 -0.5349117 0.5974402 -0.5974402 -0.5349117 0.5974402 0.8365306 -0.5479202 3.05214e-5 0.8656158 0.5007089 3.0531e-5 -0.8656158 0.5007089 3.0531e-5 -0.8365306 -0.5479202 3.05214e-5 3.05214e-5 -0.5479202 -0.8365306 -0.617328 0.4876598 -0.617328 3.0531e-5 0.5007089 -0.8656158 -0.5974402 -0.5349117 -0.5974402 -0.8365306 -0.5479202 3.05214e-5 -0.8656158 0.5007089 3.0531e-5 3.05176e-5 1 3.05176e-5 0.617328 0.4876598 -0.617328 0.5974402 -0.5349117 -0.5974402 0.8656158 0.5007089 3.0531e-5 0.8365306 -0.5479202 3.05214e-5</float_array>
          <technique_common>
            <accessor source="#geom-GameobjShape-normals-array" count="160" stride="3">
              <param name="X" type="float"/>
              <param name="Y" type="float"/>
              <param name="Z" type="float"/>
            </accessor>
          </technique_common>
        </source>
        <source id="geom-GameobjShape-map-2">
          <float_array id="geom-GameobjShape-map-2-array" count="480">1 1 1 1 1 1 1 1 1 1 1 1 1 1 1 1 1 1 1 1 1 1 1 1 1 1 1 1 1 1 1 1 1 1 1 1 1 1 1 1 1 1 1 1 1 1 1 1 1 1 1 1 1 1 1 1 1 1 1 1 1 1 1 1 1 1 1 1 1 1 1 1 1 1 1 1 1 1 1 1 1 1 1 1 1 1 1 1 1 1 1 1 1 1 1 1 1 1 1 1 1 1 1 1 1 1 1 1 1 1 1 1 1 1 1 1 1 1 1 1 1 1 1 1 1 1 1 1 1 1 1 1 1 1 1 1 1 1 1 1 1 1 1 1 1 1 1 1 1 1 1 1 1 1 1 1 1 1 1 1 1 1 1 1 1 1 1 1 1 1 1 1 1 1 1 1 1 1 1 1 1 1 1 1 1 1 1 1 1 1 1 1 1 1 1 1 1 1 1 1 1 1 1 1 1 1 1 1 1 1 1 1 1 1 1 1 1 1 1 1 1 1 1 1 1 1 1 1 1 1 1 1 1 1 1 1 1 1 1 1 1 1 1 1 1 1 1 1 1 1 1 1 1 1 1 1 1 1 1 1 1 1 1 1 1 1 1 1 1 1 1 1 1 1 1 1 1 1 1 1 1 1 1 1 1 1 1 1 1 1 1 1 1 1 1 1 1 1 1 1 1 1 1 1 1 1 1 1 1 1 1 1 1 1 1 1 1 1 1 1 1 1 1 1 1 1 1 1 1 1 1 1 1 1 1 1 1 1 1 1 1 1 1 1 1 1 1 1 1 1 1 1 1 1 1 1 1 1 1 1 1 1 1 1 1 1 1 1 1 1 1 1 1 1 1 1 1 1 1 1 1 1 1 1 1 1 1 1 1 1 1 1 1 1 1 1 1 1 1 1 1 1 1 1 1 1 1 1 1 1 1 1 1 1 1 1 1 1 1 1 1 1 1 1 1 1 1 1 1 1 1 1 1 1 1 1 1 1 1 1 1 1 1 1 1 1 1 1 1 1 1 1 1 1 1 1 1 1 1 1 1 1 1 1 1 1 1 1 1 1 1 1 1 1 1 1 1 1 1 1</float_array>
          <technique_common>
            <accessor source="#geom-GameobjShape-map-2-array" count="160" stride="3">
              <param name="R" type="float"/>
              <param name="G" type="float"/>
              <param name="B" type="float"/>
            </accessor>
          </technique_common>
        </source>
        <source id="geom-GameobjShape-map0">
          <float_array id="geom-GameobjShape-map0-array" count="480">0.5019608 0.5019608 0.5019608 0.5019608 0.5019608 0.5019608 0.5019608 0.5019608 0.5019608 0.5019608 0.5019608 0.5019608 0.5019608 0.5019608 0.5019608 0.5019608 0.5019608 0.5019608 0.5019608 0.5019608 0.5019608 0.5019608 0.5019608 0.5019608 0.5019608 0.5019608 0.5019608 0.5019608 0.5019608 0.5019608 0.5019608 0.5019608 0.5019608 0.5019608 0.5019608 0.5019608 0.5019608 0.5019608 0.5019608 0.5019608 0.5019608 0.5019608 0.5019608 0.5019608 0.5019608 0.5019608 0.5019608 0.5019608 0.5019608 0.5019608 0.5019608 0.5019608 0.5019608 0.5019608 0.5019608 0.5019608 0.5019608 0.5019608 0.5019608 0.5019608 0.5019608 0.5019608 0.5019608 0.5019608 0.5019608 0.5019608 0.5019608 0.5019608 0.5019608 0.5019608 0.5019608 0.5019608 0.5019608 0.5019608 0.5019608 0.5019608 0.5019608 0.5019608 0.5019608 0.5019608 0.5019608 0.5019608 0.5019608 0.5019608 0.5019608 0.5019608 0.5019608 0.5019608 0.5019608 0.5019608 0.5019608 0.5019608 0.5019608 0.5019608 0.5019608 0.5019608 0.5019608 0.5019608 0.5019608 0.5019608 0.5019608 0.5019608 0.5019608 0.5019608 0.5019608 0.5019608 0.5019608 0.5019608 0.5019608 0.5019608 0.5019608 0.5019608 0.5019608 0.5019608 0.5019608 0.5019608 0.5019608 0.5019608 0.5019608 0.5019608 0.5019608 0.5019608 0.5019608 0.5019608 0.5019608 0.5019608 0.5019608 0.5019608 0.5019608 0.5019608 0.5019608 0.5019608 0.5019608 0.5019608 0.5019608 0.5019608 0.5019608 0.5019608 0.5019608 0.5019608 0.5019608 0.5019608 0.5019608 0.5019608 0.5019608 0.5019608 0.5019608 0.5019608 0.5019608 0.5019608 0.5019608 0.5019608 0.5019608 0.5019608 0.5019608 0.5019608 0.5019608 0.5019608 0.5019608 0.5019608 0.5019608 0.5019608 0.5019608 0.5019608 0.5019608 0.5019608 0.5019608 0.5019608 0.5019608 0.5019608 0.5019608 0.5019608 0.5019608 0.5019608 0.5019608 0.5019608 0.5019608 0.5019608 0.5019608 0.5019608 0.5019608 0.5019608 0.5019608 0.5019608 0.5019608 0.5019608 0.5019608 0.5019608 0.5019608 0.5019608 0.5019608 0.5019608 0.5019608 0.5019608 0.5019608 0.5019608 0.5019608 0.5019608 0.5019608 0.5019608 0.5019608 0.5019608 0.5019608 0.5019608 0.5019608 0.5019608 0.5019608 0.5019608 0.5019608 0.5019608 0.5019608 0.5019608 0.5019608 0.5019608 0.5019608 0.5019608 0.5019608 0.5019608 0.5019608 0.5019608 0.5019608 0.5019608 0.5019608 0.5019608 0.5019608 0.5019608 0.5019608 0.5019608 0.5019608 0.5019608 0.5019608 0.5019608 0.5019608 0.5019608 0.5019608 0.5019608 0.5019608 0.5019608 0.5019608 0.5019608 0.5019608 0.5019608 0.5019608 0.5019608 0.5019608 0.5019608 0.5019608 0.5019608 0.5019608 0.5019608 0.5019608 0.5019608 0.5019608 0.5019608 0.5019608 0.5019608 0.5019608 0.5019608 0.5019608 0.5019608 0.5019608 0.5019608 0.5019608 0.5019608 0.5019608 0.5019608 0.5019608 0.5019608 0.5019608 0.5019608 0.5019608 0.5019608 0.5019608 0.5019608 0.5019608 0.5019608 0.5019608 0.5019608 0.5019608 0.5019608 0.5019608 0.5019608 0.5019608 0.5019608 0.5019608 0.5019608 0.5019608 0.5019608 0.5019608 0.5019608 0.5019608 0.5019608 0.5019608 0.5019608 0.5019608 0.5019608 0.5019608 0.5019608 0.5019608 0.5019608 0.5019608 0.5019608 0.5019608 0.5019608 0.5019608 0.5019608 0.5019608 0.5019608 0.5019608 0.5019608 0.5019608 0.5019608 0.5019608 0.5019608 0.5019608 0.5019608 0.5019608 0.5019608 0.5019608 0.5019608 0.5019608 0.5019608 0.5019608 0.5019608 0.5019608 0.5019608 0.5019608 0.5019608 0.5019608 0.5019608 0.5019608 0.5019608 0.5019608 0.5019608 0.5019608 0.5019608 0.5019608 0.5019608 0.5019608 0.5019608 0.5019608 0.5019608 0.5019608 0.5019608 0.5019608 0.5019608 0.5019608 0.5019608 0.5019608 0.5019608 0.5019608 0.5019608 0.5019608 0.5019608 0.5019608 0.5019608 0.5019608 0.5019608 0.5019608 0.5019608 0.5019608 0.5019608 0.5019608 0.5019608 0.5019608 0.5019608 0.5019608 0.5019608 0.5019608 0.5019608 0.5019608 0.5019608 0.5019608 0.5019608 0.5019608 0.5019608 0.5019608 0.5019608 0.5019608 0.5019608 0.5019608 0.5019608 0.5019608 0.5019608 0.5019608 0.5019608 0.5019608 0.5019608 0.5019608 0.5019608 0.5019608 0.5019608 0.5019608 0.5019608 0.5019608 0.5019608 0.5019608 0.5019608 0.5019608 0.5019608 0.5019608 0.5019608 0.5019608 0.5019608 0.5019608 0.5019608 0.5019608 0.5019608 0.5019608 0.5019608 0.5019608 0.5019608 0.5019608 0.5019608 0.5019608 0.5019608 0.5019608 0.5019608 0.5019608 0.5019608 0.5019608 0.5019608 0.5019608 0.5019608 0.5019608 0.5019608 0.5019608 0.5019608 0.5019608 0.5019608 0.5019608 0.5019608 0.5019608 0.5019608 0.5019608 0.5019608 0.5019608 0.5019608 0.5019608 0.5019608 0.5019608 0.5019608 0.5019608 0.5019608 0.5019608 0.5019608 0.5019608 0.5019608 0.5019608 0.5019608 0.5019608 0.5019608 0.5019608 0.5019608 0.5019608 0.5019608 0.5019608 0.5019608 0.5019608 0.5019608 0.5019608 0.5019608 0.5019608 0.5019608 0.5019608 0.5019608 0.5019608 0.5019608 0.5019608 0.5019608 0.5019608 0.5019608 0.5019608 0.5019608 0.5019608 0.5019608 0.5019608 0.5019608 0.5019608 0.5019608</float_array>
          <technique_common>
            <accessor source="#geom-GameobjShape-map0-array" count="160" stride="3">
              <param name="R" type="float"/>
              <param name="G" type="float"/>
              <param name="B" type="float"/>
            </accessor>
          </technique_common>
        </source>
        <source id="geom-GameobjShape-map1">
          <float_array id="geom-GameobjShape-map1-array" count="480">0.7211914 0.1630859 0 0.6542969 0.309082 0 0.8085938 0.309082 0 0.5834961 0.1630859 0 0.5 0.309082 0 0.2646484 0.1630859 0 0.345459 0.309082 0 0.4123535 0.1630859 0 0.19104 0.309082 0 0.1248779 0.1630859 0 0.03668213 0.309082 0 0.2646484 0.1630859 0 0.19104 0.309082 0 0.1248779 0.1630859 0 0.03668213 0.309082 0 0.345459 0.309082 0 0.4123535 0.1630859 0 0.5 0.309082 0 0.7211914 0.1630859 0 0.6542969 0.309082 0 0.5834961 0.1630859 0 0.8085938 0.309082 0 0.8710938 0.1630859 0 0.9628906 0.309082 0 0.8710938 0.1630859 0 0.9628906 0.309082 0 0.8085938 0.3955078 0 0.6542969 0.3955078 0 0.5 0.3955078 0 0.345459 0.3955078 0 0.19104 0.3955078 0 0.03668213 0.3955078 0 0.03668213 0.3955078 0 0.19104 0.3955078 0 0.345459 0.3955078 0 0.5 0.3955078 0 0.6542969 0.3955078 0 0.8085938 0.3955078 0 0.9628906 0.3955078 0 0.9628906 0.3955078 0 0.8085938 0.4819336 0 0.6542969 0.4819336 0 0.5 0.4819336 0 0.345459 0.4819336 0 0.19104 0.4819336 0 0.03668213 0.4819336 0 0.03668213 0.4819336 0 0.19104 0.4819336 0 0.345459 0.4819336 0 0.5 0.4819336 0 0.6542969 0.4819336 0 0.8085938 0.4819336 0 0.9628906 0.4819336 0 0.9628906 0.4819336 0 0.8085938 0.5683594 0 0.6542969 0.5683594 0 0.5 0.5683594 0 0.345459 0.5683594 0 0.19104 0.5683594 0 0.03668213 0.5683594 0 0.03668213 0.5683594 0 0.19104 0.5683594 0 0.345459 0.5683594 0 0.5 0.5683594 0 0.6542969 0.5683594 0 0.8085938 0.5683594 0 0.9628906 0.5683594 0 0.9628906 0.5683594 0 0.8085938 0.6547852 0 0.6542969 0.6547852 0 0.5 0.6547852 0 0.345459 0.6547852 0 0.19104 0.6547852 0 0.03668213 0.6547852 0 0.03668213 0.6547852 0 0.19104 0.6547852 0 0.345459 0.6547852 0 0.5 0.6547852 0 0.6542969 0.6547852 0 0.8085938 0.6547852 0 0.9628906 0.6547852 0 0.9628906 0.6547852 0 0.8085938 0.7412109 0 0.6542969 0.7412109 0 0.5 0.7412109 0 0.345459 0.7412109 0 0.19104 0.7412109 0 0.03668213 0.7412109 0 0.03668213 0.7412109 0 0.19104 0.7412109 0 0.345459 0.7412109 0 0.5 0.7412109 0 0.6542969 0.7412109 0 0.8085938 0.7412109 0 0.9628906 0.7412109 0 0.9628906 0.7412109 0 0.8085938 0.8273926 0 0.6542969 0.8273926 0 0.5 0.8273926 0 0.345459 0.8273926 0 0.19104 0.8273926 0 0.03668213 0.8273926 0 0.03668213 0.8273926 0 0.19104 0.8273926 0 0.345459 0.8273926 0 0.5 0.8273926 0 0.6542969 0.8273926 0 0.8085938 0.8273926 0 0.9628906 0.8273926 0 0.9628906 0.8273926 0 0.7216797 0.9138184 0 0.6025391 0.9138184 0 0.4064941 0.9138184 0 0.2648926 0.9138184 0 0.137207 0.9138184 0 0.137207 0.9138184 0 0.2648926 0.9138184 0 0.4064941 0.9138184 0 0.6025391 0.9138184 0 0.7216797 0.9138184 0 0.8481445 0.9138184 0 0.8481445 0.9138184 0 0.4990234 0.1054687 0 0.5546875 0.1054687 0 0.4990234 0.07470703 0 0.4433594 0.1054687 0 0.3886719 0.1054687 0 0.4433594 0.1054687 0 0.3886719 0.1054687 0 0.4990234 0.07470703 0 0.4990234 0.1054687 0 0.5546875 0.1054687 0 0.6088867 0.1054687 0 0.6088867 0.1054687 0 0.7211914 0.9755859 0 0.2646484 0.9755859 0 0.2646484 0.9755859 0 0.7211914 0.9755859 0 0.463623 0.1362305 0 0.4211426 0.1362305 0 0.463623 0.1362305 0 0.4211426 0.1362305 0 0.4990234 0.1362305 0 0.5341797 0.1362305 0 0.5766602 0.1362305 0 0.5341797 0.1362305 0 0.5766602 0.1362305 0 0.4990234 0.1362305 0 0.2646484 0.07470703 0 0.1807861 0.07470703 0 0.3601074 0.07470703 0 0.7211914 0.07470703 0 0.6328125 0.07470703 0 0.8125 0.07470703 0 0.7211914 0.07470703 0 0.8125 0.07470703 0 0.6328125 0.07470703 0 0.2646484 0.07470703 0 0.3601074 0.07470703 0 0.1807861 0.07470703 0</float_array>
          <technique_common>
            <accessor source="#geom-GameobjShape-map1-array" count="160" stride="3">
              <param name="S" type="float"/>
              <param name="T" type="float"/>
              <param name="P" type="float"/>
            </accessor>
          </technique_common>
        </source>
        <vertices id="geom-GameobjShape-vertices">
          <input semantic="POSITION" source="#geom-GameobjShape-positions"/>
        </vertices>
        <triangles material="paintball" count="232">
          <input semantic="VERTEX" source="#geom-GameobjShape-vertices" offset="0"/>
          <input semantic="NORMAL" source="#geom-GameobjShape-normals" offset="1"/>
          <input semantic="COLOR" source="#geom-GameobjShape-map0" offset="2" set="0"/>
          <input semantic="TEXCOORD" source="#geom-GameobjShape-map1" offset="3" set="0"/>
          <p>0 0 0 0 24 1 24 24 153 2 153 153 151 3 151 151 0 0 0 0 153 2 153 153 3 4 3 3 0 0 0 0 152 5 152 152 151 3 151 151 152 5 152 152 0 0 0 0 0 0 0 0 2 6 2 2 24 1 24 24 0 0 0 0 3 4 3 3 1 7 1 1 0 0 0 0 1 7 1 1 2 6 2 2 24 1 24 24 2 6 2 2 25 8 25 25 39 9 39 39 2 6 2 2 26 10 26 26 25 8 25 25 2 6 2 2 39 9 39 39 2 6 2 2 1 7 1 1 26 10 26 26 1 7 1 1 4 11 4 4 27 12 27 27 26 10 26 26 1 7 1 1 27 12 27 27 1 7 1 1 3 4 3 3 4 11 4 4 53 13 53 53 26 10 26 26 40 14 40 40 39 9 39 39 26 10 26 26 53 13 53 53 26 10 26 26 27 12 27 27 40 14 40 40 27 12 27 27 28 15 28 28 41 16 41 41 40 14 40 40 27 12 27 27 41 16 41 41 27 12 27 27 4 11 4 4 28 15 28 28 4 11 4 4 6 17 6 6 28 15 28 28 7 18 7 7 6 17 6 6 4 11 4 4 28 15 28 28 29 19 29 29 42 20 42 42 41 16 41 41 28 15 28 28 42 20 42 42 28 15 28 28 6 17 6 6 29 19 29 29 41 16 41 41 42 20 42 42 55 21 55 55 54 22 54 54 41 16 41 41 55 21 55 55 40 14 40 40 41 16 41 41 54 22 54 54 67 23 67 67 40 14 40 40 54 22 54 54 53 13 53 53 40 14 40 40 67 23 67 67 81 24 81 81 54 22 54 54 68 25 68 68 67 23 67 67 54 22 54 54 81 24 81 81 54 22 54 54 55 21 55 55 68 25 68 68 55 21 55 55 56 26 56 56 69 27 69 69 68 25 68 68 55 21 55 55 69 27 69 69 55 21 55 55 42 20 42 42 56 26 56 56 42 20 42 42 43 28 43 43 56 26 56 56 42 20 42 42 29 19 29 29 43 28 43 43 29 19 29 29 30 29 30 30 43 28 43 43 29 19 29 29 8 30 8 8 30 29 30 30 6 17 6 6 8 30 8 8 29 19 29 29 5 31 5 5 8 30 8 8 6 17 6 6 5 31 5 5 6 17 6 6 7 18 7 7 5 31 5 5 7 18 7 7 150 32 150 150 148 33 148 148 5 31 5 5 150 32 150 150 9 34 9 9 5 31 5 5 149 35 149 149 148 33 148 148 149 35 149 149 5 31 5 5 5 31 5 5 9 34 9 9 8 30 8 8 8 30 8 8 10 36 10 10 30 29 30 30 8 30 8 8 9 34 9 9 10 36 10 10 30 29 30 30 31 37 31 31 44 38 44 44 43 28 43 43 30 29 30 30 44 38 44 44 30 29 30 30 10 36 10 10 31 37 31 31 43 28 43 43 44 38 44 44 57 39 57 57 56 26 56 56 43 28 43 43 57 39 57 57 56 26 56 56 57 39 57 57 70 40 70 70 69 27 69 69 56 26 56 56 70 40 70 70 69 27 69 69 70 40 70 70 83 41 83 83 82 42 82 82 69 27 69 69 83 41 83 83 68 25 68 68 69 27 69 69 82 42 82 82 95 43 95 95 68 25 68 68 82 42 82 82 81 24 81 81 68 25 68 68 95 43 95 95 109 44 109 109 82 42 82 82 96 45 96 96 95 43 95 95 82 42 82 82 109 44 109 109 82 42 82 82 83 41 83 83 96 45 96 96 83 41 83 83 84 46 84 84 97 47 97 97 96 45 96 96 83 41 83 83 97 47 97 97 83 41 83 83 70 40 70 70 84 46 84 84 70 40 70 70 71 48 71 71 84 46 84 84 70 40 70 70 57 39 57 57 71 48 71 71 57 39 57 57 58 49 58 58 71 48 71 71 57 39 57 57 44 38 44 44 58 49 58 58 44 38 44 44 45 50 45 45 58 49 58 58 44 38 44 44 31 37 31 31 45 50 45 45 58 49 58 58 59 51 59 59 72 52 72 72 71 48 71 71 58 49 58 58 72 52 72 72 58 49 58 58 45 50 45 45 59 51 59 59 71 48 71 71 72 52 72 72 85 53 85 85 84 46 84 84 71 48 71 71 85 53 85 85 84 46 84 84 85 53 85 85 98 54 98 98 97 47 97 97 84 46 84 84 98 54 98 98 97 47 97 97 111 55 111 111 110 56 110 110 98 54 98 98 111 55 111 111 97 47 97 97 96 45 96 96 97 47 97 97 110 56 110 110 121 57 121 121 96 45 96 96 110 56 110 110 109 44 109 109 96 45 96 96 121 57 121 121 121 57 121 121 110 56 110 110 134 58 134 134 110 56 110 110 111 55 111 111 134 58 134 134 98 54 98 98 99 59 99 99 112 60 112 112 98 54 98 98 85 53 85 85 99 59 99 99 85 53 85 85 86 61 86 86 99 59 99 99 85 53 85 85 72 52 72 72 86 61 86 86 72 52 72 72 73 62 73 73 86 61 86 86 72 52 72 72 59 51 59 59 73 62 73 73 86 61 86 86 87 63 87 87 100 64 100 100 99 59 99 99 86 61 86 86 100 64 100 100 86 61 86 86 73 62 73 73 87 63 87 87 99 59 99 99 100 64 100 100 113 65 113 113 112 60 112 112 99 59 99 99 113 65 113 113 112 60 112 112 113 65 113 113 135 66 135 135 113 65 113 113 114 67 114 114 135 66 135 135 100 64 100 100 114 67 114 114 113 65 113 113 101 68 101 101 114 67 114 114 100 64 100 100 100 64 100 100 87 63 87 87 101 68 101 101 11 69 11 11 13 70 13 13 159 71 159 159 157 72 157 157 11 69 11 11 159 71 159 159 16 73 16 16 11 69 11 11 158 74 158 158 157 72 157 157 158 74 158 158 11 69 11 11 11 69 11 11 16 73 16 16 15 75 15 15 11 69 11 11 15 75 15 15 12 76 12 12 11 69 11 11 12 76 12 12 13 70 13 13 13 70 13 13 12 76 12 12 14 77 14 14 12 76 12 12 15 75 15 15 33 78 33 33 32 79 32 32 12 76 12 12 33 78 33 33 14 77 14 14 12 76 12 12 32 79 32 32 15 75 15 15 17 80 17 17 34 81 34 34 33 78 33 33 15 75 15 15 34 81 34 34 15 75 15 15 16 73 16 16 17 80 17 17 33 78 33 33 34 81 34 34 47 82 47 47 46 83 46 46 33 78 33 33 47 82 47 47 32 79 32 32 33 78 33 33 46 83 46 46 34 81 34 34 35 84 35 35 48 85 48 48 47 82 47 47 34 81 34 34 48 85 48 48 34 81 34 34 17 80 17 17 35 84 35 35 17 80 17 17 19 86 19 19 35 84 35 35 20 87 20 20 19 86 19 19 17 80 17 17 35 84 35 35 36 88 36 36 49 89 49 49 48 85 48 48 35 84 35 35 49 89 49 49 35 84 35 35 19 86 19 19 36 88 36 36 48 85 48 48 49 89 49 49 62 90 62 62 61 91 61 61 48 85 48 48 62 90 62 62 47 82 47 47 48 85 48 48 61 91 61 61 60 92 60 60 47 82 47 47 61 91 61 61 46 83 46 46 47 82 47 47 60 92 60 60 61 91 61 61 62 90 62 62 75 93 75 75 74 94 74 74 61 91 61 61 75 93 75 75 60 92 60 60 61 91 61 61 74 94 74 74 62 90 62 62 63 95 63 63 76 96 76 76 75 93 75 75 62 90 62 62 76 96 76 76 62 90 62 62 49 89 49 49 63 95 63 63 49 89 49 49 50 97 50 50 63 95 63 63 49 89 49 49 36 88 36 36 50 97 50 50 36 88 36 36 37 98 37 37 50 97 50 50 36 88 36 36 21 99 21 21 37 98 37 37 19 86 19 19 21 99 21 21 36 88 36 36 18 100 18 18 21 99 21 21 19 86 19 19 18 100 18 18 19 86 19 19 20 87 20 20 18 100 18 18 20 87 20 20 156 101 156 156 154 102 154 154 18 100 18 18 156 101 156 156 22 103 22 22 18 100 18 18 155 104 155 155 154 102 154 154 155 104 155 155 18 100 18 18 18 100 18 18 22 103 22 22 21 99 21 21 21 99 21 21 23 105 23 23 37 98 37 37 21 99 21 21 22 103 22 22 23 105 23 23 37 98 37 37 38 106 38 38 51 107 51 51 50 97 50 50 37 98 37 37 51 107 51 51 37 98 37 37 23 105 23 23 38 106 38 38 50 97 50 50 51 107 51 51 64 108 64 64 63 95 63 63 50 97 50 50 64 108 64 64 63 95 63 63 64 108 64 64 77 109 77 77 76 96 76 76 63 95 63 63 77 109 77 77 76 96 76 76 77 109 77 77 90 110 90 90 89 111 89 89 76 96 76 76 90 110 90 90 75 93 75 75 76 96 76 76 89 111 89 89 88 112 88 88 75 93 75 75 89 111 89 89 74 94 74 74 75 93 75 75 88 112 88 88 89 111 89 89 90 110 90 90 103 113 103 103 102 114 102 102 89 111 89 89 103 113 103 103 88 112 88 88 89 111 89 89 102 114 102 102 90 110 90 90 91 115 91 91 104 116 104 104 103 113 103 103 90 110 90 90 104 116 104 104 90 110 90 90 77 109 77 77 91 115 91 91 77 109 77 77 78 117 78 78 91 115 91 91 77 109 77 77 64 108 64 64 78 117 78 78 64 108 64 64 65 118 65 65 78 117 78 78 64 108 64 64 51 107 51 51 65 118 65 65 51 107 51 51 52 119 52 52 65 118 65 65 51 107 51 51 38 106 38 38 52 119 52 52 65 118 65 65 66 120 66 66 79 121 79 79 78 117 78 78 65 118 65 65 79 121 79 79 65 118 65 65 52 119 52 52 66 120 66 66 78 117 78 78 79 121 79 79 92 122 92 92 91 115 91 91 78 117 78 78 92 122 92 92 91 115 91 91 92 122 92 92 105 123 105 105 104 116 104 104 91 115 91 91 105 123 105 105 104 116 104 104 117 124 117 117 116 125 116 116 105 123 105 105 117 124 117 117 104 116 104 104 103 113 103 103 104 116 104 104 116 125 116 116 115 126 115 115 103 113 103 103 116 125 116 116 102 114 102 102 103 113 103 103 115 126 115 115 116 125 116 116 117 124 117 117 136 127 136 136 115 126 115 115 116 125 116 116 136 127 136 136 105 123 105 105 106 128 106 106 118 129 118 118 105 123 105 105 92 122 92 92 106 128 106 106 92 122 92 92 93 130 93 93 106 128 106 106 92 122 92 92 79 121 79 79 93 130 93 93 79 121 79 79 80 131 80 80 93 130 93 93 79 121 79 79 66 120 66 66 80 131 80 80 93 130 93 93 94 132 94 94 107 133 107 107 106 128 106 106 93 130 93 93 107 133 107 107 93 130 93 93 80 131 80 80 94 132 94 94 106 128 106 106 107 133 107 107 119 134 119 119 118 129 118 118 106 128 106 106 119 134 119 119 118 129 118 118 119 134 119 119 137 135 137 137 119 134 119 119 120 136 120 120 137 135 137 137 107 133 107 107 120 136 120 120 119 134 119 119 108 137 108 108 120 136 120 120 107 133 107 107 107 133 107 107 94 132 94 94 108 137 108 108 142 138 142 142 123 139 123 123 122 140 122 122 125 141 125 125 142 138 142 142 122 140 122 122 125 141 125 125 122 140 122 122 124 142 124 124 122 140 122 122 123 139 123 123 124 142 124 124 143 143 143 143 123 139 123 123 142 138 142 142 140 144 140 140 142 138 142 142 125 141 125 125 123 139 123 123 144 145 144 144 133 146 133 133 143 143 143 143 144 145 144 144 123 139 123 123 123 139 123 123 133 146 133 133 124 142 124 124 126 147 126 126 125 141 125 125 124 142 124 124 141 148 141 141 125 141 125 125 126 147 126 126 140 144 140 140 125 141 125 125 141 148 141 141 147 149 147 147 127 150 127 127 130 151 130 130 138 152 138 138 127 150 127 127 147 149 147 147 127 150 127 127 139 153 139 139 128 154 128 128 138 152 138 138 139 153 139 139 127 150 127 127 130 151 130 130 127 150 127 127 129 155 129 129 127 150 127 127 128 154 128 128 129 155 129 129 131 156 131 131 147 149 147 147 130 151 130 130 145 157 145 145 147 149 147 147 131 156 131 131 131 156 131 131 130 151 130 130 129 155 129 129 132 158 132 132 131 156 131 131 129 155 129 129 146 159 146 146 131 156 131 131 132 158 132 132 145 157 145 145 131 156 131 131 146 159 146 146</p>
        </triangles>
      </mesh>
    </geometry>
  </library_geometries>
  <library_controllers>
    <controller id="geom-GameobjShape-skin1">
      <skin source="#geom-GameobjShape">
        <bind_shape_matrix>0.9999999 0 0 0 0 1 0 0 0 0 0.9999999 0 0 0 0 1</bind_shape_matrix>
        <source id="geom-GameobjShape-skin1-joints">
          <Name_array id="geom-GameobjShape-skin1-joints-array" count="3">joint0 joint1 joint2</Name_array>
          <technique_common>
            <accessor source="#geom-GameobjShape-skin1-joints-array" count="3" stride="1">
              <param name="JOINT" type="name"/>
            </accessor>
          </technique_common>
        </source>
        <source id="geom-GameobjShape-skin1-bind_poses">
          <float_array id="geom-GameobjShape-skin1-bind_poses-array" count="48">1 0 0 0 0 1 0 0 0 0 1 0 0 0 0 1 -1.19209e-7 0 1 -0.268774 0 1 0 9.70267 -1 0 -1.19209e-7 8.177921 0 0 0 1 1 0 0 0 0 1 0 0 0 0 1 0 0 0 0 1</float_array>
          <technique_common>
            <accessor source="#geom-GameobjShape-skin1-bind_poses-array" count="3" stride="16">
              <param name="TRANSFORM" type="float4x4"/>
            </accessor>
          </technique_common>
        </source>
        <source id="geom-GameobjShape-skin1-weights">
          <float_array id="geom-GameobjShape-skin1-weights-array" count="1">1</float_array>
          <technique_common>
            <accessor source="#geom-GameobjShape-skin1-weights-array" count="1" stride="1">
              <param name="WEIGHT" type="float"/>
            </accessor>
          </technique_common>
        </source>
        <joints>
          <input semantic="JOINT" source="#geom-GameobjShape-skin1-joints"/>
          <input semantic="INV_BIND_MATRIX" source="#geom-GameobjShape-skin1-bind_poses"/>
        </joints>
        <vertex_weights count="160">
          <input semantic="JOINT" source="#geom-GameobjShape-skin1-joints" offset="0"/>
          <input semantic="WEIGHT" source="#geom-GameobjShape-skin1-weights" offset="1"/>
          <vcount>1 1 1 1 1 1 1 1 1 1 1 1 1 1 1 1 1 1 1 1 1 1 1 1 1 1 1 1 1 1 1 1 1 1 1 1 1 1 1 1 1 1 1 1 1 1 1 1 1 1 1 1 1 1 1 1 1 1 1 1 1 1 1 1 1 1 1 1 1 1 1 1 1 1 1 1 1 1 1 1 1 1 1 1 1 1 1 1 1 1 1 1 1 1 1 1 1 1 1 1 1 1 1 1 1 1 1 1 1 1 1 1 1 1 1 1 1 1 1 1 1 1 1 1 1 1 1 1 1 1 1 1 1 1 1 1 1 1 1 1 1 1 1 1 1 1 1 1 1 1 1 1 1 1 1 1 1 1 1 1</vcount>
          <v>2 0 2 0 2 0 2 0 2 0 2 0 2 0 2 0 2 0 2 0 2 0 2 0 2 0 2 0 2 0 2 0 2 0 2 0 2 0 2 0 2 0 2 0 2 0 2 0 2 0 2 0 2 0 2 0 2 0 2 0 2 0 2 0 2 0 2 0 2 0 2 0 2 0 2 0 2 0 2 0 2 0 2 0 2 0 2 0 2 0 2 0 2 0 2 0 2 0 2 0 2 0 2 0 2 0 2 0 2 0 2 0 2 0 2 0 2 0 2 0 2 0 2 0 2 0 2 0 2 0 2 0 2 0 2 0 2 0 2 0 2 0 2 0 2 0 2 0 2 0 2 0 2 0 2 0 2 0 2 0 2 0 2 0 2 0 2 0 2 0 2 0 2 0 2 0 2 0 2 0 2 0 2 0 2 0 2 0 2 0 2 0 2 0 2 0 2 0 2 0 2 0 2 0 2 0 2 0 2 0 2 0 2 0 2 0 2 0 2 0 2 0 2 0 2 0 2 0 2 0 2 0 2 0 2 0 2 0 2 0 2 0 2 0 2 0 2 0 2 0 2 0 2 0 2 0 2 0 2 0 2 0 2 0 2 0 2 0 2 0 2 0 2 0 2 0 2 0 2 0 2 0 2 0 2 0 2 0 2 0 2 0 2 0 2 0 2 0 2 0 2 0 2 0 2 0 2 0 2 0 2 0 2 0 2 0 2 0 2 0</v>
        </vertex_weights>
      </skin>
    </controller>
  </library_controllers>
  <library_lights>
    <light id="EnvironmentAmbientLight" name="EnvironmentAmbientLight">
      <technique_common>
        <ambient>
          <color>0 0 0</color>
        </ambient>
      </technique_common>
    </light>
  </library_lights>
  <library_images>
    <image id="masterhandpaintball_col_png">
      <init_from>./images/Masterhandpaintball/masterhandpaintball_col.png</init_from>
    </image>
  </library_images>
  <library_visual_scenes>
    <visual_scene id="MaxScene">
      <node name="EnvironmentAmbientLight">
        <instance_light url="#EnvironmentAmbientLight"/>
      </node>
      <node id="node-Top" name="Top" sid="joint0" type="JOINT">
        <node id="node-Have" name="Have" sid="joint1" type="JOINT">
          <translate>8.17792 -9.70267 0.268775</translate>
          <rotate>0 1 0 -90</rotate>
          <node id="node-Paintball_Trans" name="Paintball_Trans" sid="joint2" type="JOINT">
            <translate>-0.268774 9.70267 8.177921</translate>
            <rotate>0 -1 0 -90</rotate>
            <extra>
              <technique profile="OpenCOLLADA">
                <cast_shadows sid="cast_shadows" type="bool">1</cast_shadows>
                <receive_shadows sid="receive_shadows" type="bool">1</receive_shadows>
                <primary_visibility sid="primary_visibility" type="bool">1</primary_visibility>
                <secondary_visibility sid="secondary_visibility" type="bool">1</secondary_visibility>
              </technique>
            </extra>
          </node>
          <extra>
            <technique profile="OpenCOLLADA">
              <cast_shadows sid="cast_shadows" type="bool">1</cast_shadows>
              <receive_shadows sid="receive_shadows" type="bool">1</receive_shadows>
              <primary_visibility sid="primary_visibility" type="bool">1</primary_visibility>
              <secondary_visibility sid="secondary_visibility" type="bool">1</secondary_visibility>
            </technique>
          </extra>
        </node>
        <extra>
          <technique profile="OpenCOLLADA">
            <cast_shadows sid="cast_shadows" type="bool">1</cast_shadows>
            <receive_shadows sid="receive_shadows" type="bool">1</receive_shadows>
            <primary_visibility sid="primary_visibility" type="bool">1</primary_visibility>
            <secondary_visibility sid="secondary_visibility" type="bool">1</secondary_visibility>
          </technique>
        </extra>
      </node>
      <node id="node-GameobjShape" name="GameobjShape">
        <instance_controller url="#geom-GameobjShape-skin1">
          <skeleton>#node-Top</skeleton>
          <bind_material>
            <technique_common>
              <instance_material symbol="paintball" target="#paintball-material">
                <bind_vertex_input semantic="CHANNEL1" input_semantic="TEXCOORD" input_set="0"/>
                <bind_vertex_input semantic="CHANNEL1" input_semantic="TEXCOORD" input_set="0"/>
              </instance_material>
            </technique_common>
          </bind_material>
        </instance_controller>
        <extra>
          <technique profile="OpenCOLLADA">
            <cast_shadows sid="cast_shadows" type="bool">1</cast_shadows>
            <receive_shadows sid="receive_shadows" type="bool">1</receive_shadows>
            <primary_visibility sid="primary_visibility" type="bool">1</primary_visibility>
            <secondary_visibility sid="secondary_visibility" type="bool">1</secondary_visibility>
          </technique>
        </extra>
      </node>
    </visual_scene>
  </library_visual_scenes>
  <scene>
    <instance_visual_scene url="#MaxScene"/>
  </scene>
</COLLADA>